<svg width="48" height="48" viewBox="0 0 48 48" fill="none" xmlns="http://www.w3.org/2000/svg">
  <defs>
    <radialGradient id="core-grad" cx="50%" cy="50%" r="50%">
      <stop offset="0%" stop-color="#e2c78a"/>
      <stop offset="100%" stop-color="#c9a84c"/>
    </radialGradient>
    <radialGradient id="node-grad" cx="50%" cy="50%" r="50%">
      <stop offset="0%" stop-color="#7ecec8"/>
      <stop offset="100%" stop-color="#5fb8b0"/>
    </radialGradient>
    <filter id="glow" x="-40%" y="-40%" width="180%" height="180%">
      <feGaussianBlur stdDeviation="1.5" result="blur"/>
      <feMerge><feMergeNode in="blur"/><feMergeNode in="SourceGraphic"/></feMerge>
    </filter>
  </defs>

  <!-- Outer orbit ring -->
  <circle cx="24" cy="24" r="20" stroke="#c9a84c" stroke-width="0.7" stroke-dasharray="2.5 3.5" opacity="0.35"/>

  <!-- Mid ring -->
  <circle cx="24" cy="24" r="13" stroke="#5fb8b0" stroke-width="0.5" stroke-dasharray="1.5 4" opacity="0.25"/>

  <!-- Connection lines (spokes) -->
  <line x1="24" y1="24" x2="24" y2="6.5" stroke="#c9a84c" stroke-width="1.1" stroke-linecap="round" opacity="0.55"/>
  <line x1="24" y1="24" x2="39.5" y2="33" stroke="#5fb8b0" stroke-width="1.1" stroke-linecap="round" opacity="0.45"/>
  <line x1="24" y1="24" x2="8.5" y2="33" stroke="#c9a84c" stroke-width="1.1" stroke-linecap="round" opacity="0.45"/>
  <line x1="24" y1="24" x2="39.5" y2="15" stroke="#5fb8b0" stroke-width="0.8" stroke-linecap="round" opacity="0.30"/>
  <line x1="24" y1="24" x2="8.5" y2="15" stroke="#5fb8b0" stroke-width="0.8" stroke-linecap="round" opacity="0.30"/>

  <!-- Cross-connections between outer nodes -->
  <line x1="24" y1="6.5" x2="39.5" y2="15" stroke="#c9a84c" stroke-width="0.6" stroke-linecap="round" opacity="0.20"/>
  <line x1="39.5" y1="33" x2="8.5" y2="33" stroke="#5fb8b0" stroke-width="0.6" stroke-linecap="round" opacity="0.20"/>

  <!-- Outer nodes -->
  <circle cx="24" cy="6.5" r="3.2" fill="url(#core-grad)" filter="url(#glow)" opacity="0.95"/>
  <circle cx="39.5" cy="33" r="3" fill="url(#node-grad)" opacity="0.85"/>
  <circle cx="8.5" cy="33" r="3" fill="url(#core-grad)" opacity="0.7"/>
  <circle cx="39.5" cy="15" r="2.2" fill="url(#node-grad)" opacity="0.5"/>
  <circle cx="8.5" cy="15" r="2.2" fill="url(#node-grad)" opacity="0.5"/>

  <!-- Core central node -->
  <circle cx="24" cy="24" r="5.5" fill="url(#core-grad)" filter="url(#glow)"/>
  <circle cx="24" cy="24" r="3" fill="#fff" opacity="0.25"/>
</svg>
